<svg width="20" height="20" viewBox="0 0 20 20" fill="none" xmlns="http://www.w3.org/2000/svg">
<path d="M0 5V0H5V2H2V5H0ZM0 20V15H2V18H5V20H0ZM15 20V18H18V15H20V20H15ZM18 5V2H15V0H20V5H18ZM15.5 15.5H17V17H15.5V15.5ZM15.5 12.5H17V14H15.5V12.5ZM14 14H15.5V15.5H14V14ZM12.5 15.5H14V17H12.5V15.5ZM11 14H12.5V15.5H11V14ZM14 11H15.5V12.5H14V11ZM12.5 12.5H14V14H12.5V12.5ZM11 11H12.5V12.5H11V11ZM17 3V9H11V3H17ZM9 11V17H3V11H9ZM9 3V9H3V3H9ZM7.5 15.5V12.5H4.5V15.5H7.5ZM7.5 7.5V4.5H4.5V7.5H7.5ZM15.5 7.5V4.5H12.5V7.5H15.5Z" fill="#AAAAAA" fill-opacity="0.85"/>
</svg>
