<svg width="20" height="20" viewBox="0 0 20 20" fill="none" xmlns="http://www.w3.org/2000/svg">
<path d="M2.12671 20C1.53998 20 1.03886 19.7922 0.623325 19.3767C0.207775 18.9611 0 18.46 0 17.8733V2.12671C0 1.53999 0.207775 1.03886 0.623325 0.623325C1.03886 0.207775 1.53998 0 2.12671 0H17.8733C18.46 0 18.9611 0.207775 19.3767 0.623325C19.7922 1.03886 20 1.53999 20 2.12671V17.8733C20 18.46 19.7922 18.9611 19.3767 19.3767C18.9611 19.7922 18.46 20 17.8733 20H2.12671ZM2.12671 18.2353H17.8733C17.9789 18.2353 18.0656 18.2014 18.1335 18.1335C18.2014 18.0656 18.2353 17.9789 18.2353 17.8733V4.11763H1.76468V17.8733C1.76468 17.9789 1.79862 18.0656 1.86651 18.1335C1.93439 18.2014 2.02112 18.2353 2.12671 18.2353ZM4.11763 9.70585V7.9412H15.8824V9.70585H4.11763ZM4.11763 14.4117V12.6471H11.1765V14.4117H4.11763Z" fill="#AAAAAA" fill-opacity="0.85"/>
</svg>
