<svg width="20" height="20" viewBox="0 0 20 20" fill="none" xmlns="http://www.w3.org/2000/svg">
<path d="M4.93216 20V18.2353H9.11767V14.2036C8.11918 14.003 7.23682 13.5829 6.47061 12.9434C5.70439 12.3039 5.15989 11.5067 4.8371 10.552C3.47965 10.3906 2.3341 9.81444 1.40047 8.8235C0.466825 7.83255 0 6.65609 0 5.2941V4.11763C0 3.63649 0.173833 3.2221 0.521501 2.87445C0.869149 2.52678 1.28354 2.35295 1.76468 2.35295H4.50228V0H15.4977V2.35295H18.2353C18.7165 2.35295 19.1308 2.52678 19.4785 2.87445C19.8262 3.2221 20 3.63649 20 4.11763V5.2941C20 6.65609 19.5332 7.83255 18.5995 8.8235C17.6659 9.81444 16.5204 10.3906 15.1629 10.552C14.8401 11.5067 14.2956 12.3039 13.5294 12.9434C12.7632 13.5829 11.8808 14.003 10.8823 14.2036V18.2353H15.0678V20H4.93216ZM4.50228 8.65611V4.11763H1.76468V5.2941C1.76468 6.11462 2.02185 6.83521 2.53618 7.45587C3.05052 8.07654 3.70588 8.47662 4.50228 8.65611ZM10 12.5113C11.0332 12.5113 11.9099 12.1512 12.6301 11.431C13.3503 10.7108 13.7104 9.83409 13.7104 8.80091V1.76468H6.28958V8.80091C6.28958 9.83409 6.64969 10.7108 7.3699 11.431C8.0901 12.1512 8.9668 12.5113 10 12.5113ZM15.4977 8.65611C16.2941 8.47662 16.9495 8.07654 17.4638 7.45587C17.9781 6.83521 18.2353 6.11462 18.2353 5.2941V4.11763H15.4977V8.65611Z" fill="#AAAAAA" fill-opacity="0.85"/>
</svg>
