<svg width="232" height="66" viewBox="0 0 232 66" fill="none" xmlns="http://www.w3.org/2000/svg">
<path d="M62.3818 3.12268V44.624C62.3818 48.5897 60.7182 52.3672 57.8137 55.0696C54.1911 58.4464 50.0554 61.2588 47.0727 63.0938L42.5609 65.9013L22.9306 19.9089L21.0081 21.8319C20.2117 22.6284 19.7647 23.7084 19.7647 24.8324V63.1598H0V20.791C0 16.8253 1.66355 13.0478 4.56803 10.3454C8.16139 6.99305 12.258 4.20511 15.2309 2.36767C15.2309 2.36767 19.2566 0 19.2957 0L39.0506 45.5794L41.2369 43.9301C41.745 43.5465 42.1896 43.0749 42.4778 42.508C42.7783 41.9167 42.9395 41.2595 42.9395 40.5826V3.12268H62.3793H62.3818Z" fill="#111111"/>
<path d="M70.189 23.3615H94.8564V30.6868H79.2542V36.9615H93.591V44.2868H79.2542V50.586H94.7831V57.9113H70.189V23.3615Z" fill="#111111"/>
<path d="M98.1001 23.3615H108.191L113.057 44.9808H113.343L119.02 23.3615H127.084L132.785 45.0761H133.071L137.913 23.3615H148.028L137.913 57.9138H129.133L123.193 38.1319H122.931L116.968 57.9138H108.262L98.1001 23.3615Z" fill="#111111"/>
<path d="M161.818 23.3615H185.89V30.6868H170.884V36.9615H184.409V44.2868H170.884V57.9113H161.818V23.3615Z" fill="#111111"/>
<path d="M198.58 57.9138H189.515V23.3615H198.58V57.9138Z" fill="#111111"/>
<path d="M202.205 23.3615H232V30.6868H221.574V57.9138H212.653V30.6868H202.205V23.3615Z" fill="#111111"/>
</svg>
